<?xml version="1.0" encoding="UTF-8" standalone="no"?>
<!-- Created with Inkscape (http://www.inkscape.org/) -->

<svg
   width="31.999998"
   height="31.999998"
   viewBox="0 0 8.4666661 8.4666661"
   version="1.1"
   id="svg1"
   xmlns="http://www.w3.org/2000/svg"
   xmlns:svg="http://www.w3.org/2000/svg">
  <defs
     id="defs1" />
  <rect
     style="fill:#ffffff;stroke-width:0.264583"
     id="rect9"
     width="8.4666662"
     height="8.4666662"
     x="2.2252401e-07"
     y="2.2252401e-07"
     ry="1.1489252" />
  <g
     id="layer1">
    <path
       id="path7"
       style="stroke-width:0.247146"
       d="m 4.2193382,0.12996647 c -0.7634086,0 -1.390404,1.31027503 -1.538244,2.36731583 C 1.865045,2.7108325 0.99469713,2.9951674 0.80331692,3.274358 0.38329679,3.8870947 -0.11540666,6.7374755 0.47230239,6.8756816 3.407385,7.565898 4.2333334,8.3367002 4.2333334,8.3367002 c 0,0 0.8259483,-0.7708022 3.7610309,-1.4610186 C 8.5820733,6.7374755 8.0833698,3.8870947 7.6633497,3.274358 7.4718678,2.9950188 6.6001726,2.7102884 5.783747,2.4967002 5.6303831,1.4397185 4.982665,0.12996636 4.2193382,0.12996647 Z M 3.2907937,1.8441895 c 0,0 0.037907,0.3826067 0.1308239,0.5471544 0.045329,0.080274 0.1056041,0.1761102 0.1983653,0.1973249 0.2058654,0.047082 0.1669643,-0.203777 0.5993553,-0.2002353 0.4291432,0.00351 0.3894895,0.2673757 0.5981384,0.2223542 C 4.9288637,2.5867527 4.9994406,2.4692072 5.0529594,2.3727174 5.1413352,2.2133828 5.1758729,1.8441895 5.1758729,1.8441895 5.2456744,2.3412595 5.5463168,2.6251697 5.3851905,3.1596884 5.2808495,2.8847731 5.0100097,2.8243201 5.0100097,2.8243201 5.0233258,3.1746218 5.2442638,3.3162042 5.2169343,3.8152124 5.0400286,3.4743071 4.7544918,3.4755411 4.7544918,3.4755411 4.9070312,3.9332007 4.6608446,3.8328631 4.8836797,4.3191114 4.6050225,4.1921754 4.4558623,3.9858678 4.4558623,3.9858678 4.2333333,4.1795495 4.5377754,4.6985718 4.3128182,4.9481828 4.2426803,4.4617692 3.9660131,4.4454461 4.0075863,4.0875226 3.8903746,4.126766 3.832988,4.4934559 3.832988,4.4934559 3.5494536,4.0930683 3.7168265,3.5311283 3.7168265,3.5311283 3.4603502,3.6765398 3.4316058,3.9728703 3.4316058,3.9728703 3.2323461,3.4898859 3.5099111,3.2068614 3.4744747,2.8836413 3.2355322,2.8958223 3.0704059,3.2851666 3.0704059,3.2851666 2.9038979,2.552622 3.1624113,2.4296131 3.2907937,1.8441895 Z M 1.9849901,5.6183907 C 3.2855549,5.6007934 4.0367934,6.032831 4.0367934,6.032831 V 7.7668448 C 3.7812538,7.5801777 2.9846215,7.0919795 1.151369,6.6393575 Z m 4.4966865,0 0.833621,1.0209668 C 5.4820451,7.0919795 4.6854128,7.5801777 4.4298732,7.7668448 V 6.032831 c 0,0 0.7512386,-0.4320376 2.0518034,-0.4144403 z" />
  </g>
</svg>
